<!-- Generator: Adobe Illustrator 19.2.1, SVG Export Plug-In  -->
<svg version="1.1"
	 xmlns="http://www.w3.org/2000/svg" xmlns:xlink="http://www.w3.org/1999/xlink" xmlns:a="http://ns.adobe.com/AdobeSVGViewerExtensions/3.0/"
	 x="0px" y="0px" width="222.063px" height="35.081px" viewBox="0 0 222.063 35.081"
	 style="enable-background:new 0 0 222.063 35.081;" xml:space="preserve">
<style type="text/css">
	.st0{fill:#414042;}
</style>
<defs>
</defs>
<g>
	<path class="st0" d="M2.303,0.392L9.26,32.093l6.958-31.701h2.107l-7.447,34.298H7.545L0,0.392H2.303z"/>
	<path class="st0" d="M24.01,0.392v34.298h-2.254V0.392H24.01z"/>
	<path class="st0" d="M29.987,34.689H27.93V0.392h2.939l10.29,28.957V0.392h2.058v34.298h-2.499L29.987,4.115V34.689z"/>
	<path class="st0" d="M58.7,16.267v2.058h-9.358v14.308h11.269v2.058H47.088V0.392h13.523V2.45H49.342v13.816H58.7z"/>
	<path class="st0" d="M75.899,16.267v2.058h-9.358v14.308H77.81v2.058H64.287V0.392H77.81V2.45H66.541v13.816H75.899z"/>
	<path class="st0" d="M87.414,34.689V2.45h-7.006V0.392h16.218V2.45h-6.958v32.239H87.414z"/>
	<path class="st0" d="M114.216,21.02l-1.666,3.136v10.534h-5.39V0.392h5.39v14.944l7.055-14.944h5.39l-7.497,15.287l7.497,19.011
		h-5.537L114.216,21.02z"/>
	<path class="st0" d="M144.889,34.689h-5.438l-0.931-6.223h-6.614l-0.931,6.223h-4.949l5.487-34.298h7.889L144.889,34.689z
		 M132.591,23.812h5.193l-2.597-17.345L132.591,23.812z"/>
	<path class="st0" d="M158.805,24.743l3.675-24.352h7.496v34.298h-5.096V10.093l-3.724,24.597h-5.096l-4.018-24.253v24.253h-4.704
		V0.392h7.497L158.805,24.743z"/>
	<path class="st0" d="M190.017,8.28v1.225c0,3.528-1.078,5.782-3.479,6.909c2.892,1.127,4.019,3.724,4.019,7.349v2.793
		c0,5.292-2.793,8.134-8.183,8.134h-8.477V0.392h8.134C187.616,0.392,190.017,2.989,190.017,8.28z M179.287,5.292v9.063h2.106
		c2.009,0,3.234-0.882,3.234-3.625V8.819c0-2.45-0.833-3.527-2.744-3.527H179.287z M179.287,19.256V29.79h3.087
		c1.812,0,2.793-0.833,2.793-3.381V23.42c0-3.185-1.029-4.164-3.479-4.164H179.287z"/>
	<path class="st0" d="M193.35,8.623c0-5.487,2.891-8.623,8.182-8.623c5.292,0,8.183,3.136,8.183,8.623v17.835
		c0,5.487-2.891,8.623-8.183,8.623c-5.291,0-8.182-3.136-8.182-8.623V8.623z M198.739,26.801c0,2.45,1.078,3.381,2.793,3.381
		s2.793-0.931,2.793-3.381V8.28c0-2.449-1.078-3.381-2.793-3.381s-2.793,0.932-2.793,3.381V26.801z"/>
	<path class="st0" d="M211.724,29.79c0.589,0.049,1.274,0.049,1.862,0.049c1.715,0,3.087-0.638,3.087-3.283V0.392h5.39v25.772
		c0,6.859-3.675,8.623-7.741,8.623c-0.98,0-1.715,0-2.598-0.098V29.79z"/>
</g>
</svg>