<svg id="Layer_1" data-name="Layer 1" xmlns="http://www.w3.org/2000/svg" viewBox="0 0 149.89 46.28"><defs><style>.cls-1,.cls-5,.cls-7,.cls-8{font-size:7.1px;fill:#231f20;}.cls-1,.cls-10,.cls-5,.cls-7,.cls-8{font-family:BebasNeueLight, Bebas Neue;}.cls-2,.cls-8{letter-spacing:0.1em;}.cls-3,.cls-7{letter-spacing:0.1em;}.cls-4,.cls-5{letter-spacing:0.1em;}.cls-6{letter-spacing:0em;}.cls-10,.cls-11,.cls-9{font-size:30px;fill:#414042;}.cls-9{font-family:BebasNeueBook, Bebas Neue;}.cls-11{font-family:BebasNeueBold, Bebas Neue;font-weight:700;}</style></defs><title>Logo1</title><text class="cls-1" transform="translate(8.7 39.73) scale(1.41 1)"><tspan class="cls-2">a</tspan><tspan x="3.89" y="0">r</tspan></text><text class="cls-1" transform="translate(18.99 39.73) scale(1.41 1)">c</text><text class="cls-1" transform="translate(23.69 39.73) scale(1.41 1)"><tspan class="cls-3">hit</tspan><tspan x="8.16" y="0">e</tspan></text><text class="cls-1" transform="translate(39.64 39.73) scale(1.41 1)">c</text><text class="cls-1" transform="translate(44.34 39.73) scale(1.41 1)">t</text><text class="cls-1" transform="translate(49.02 39.73) scale(1.41 1)"><tspan class="cls-4"> </tspan><tspan x="1.81" y="0">/</tspan></text><text class="cls-1" transform="translate(56.25 39.73) scale(1.41 1)"><tspan class="cls-2" xml:space="preserve"> inte</tspan><tspan x="13.15" y="0">r</tspan></text><text class="cls-5" transform="translate(79.58 39.73) scale(1.41 1)">a<tspan class="cls-6" x="3.88" y="0">c</tspan></text><text class="cls-7" transform="translate(89.75 39.73) scale(1.41 1)">tio<tspan class="cls-6" x="8.15" y="0">n</tspan></text><text class="cls-1" transform="translate(106.02 39.73) scale(1.41 1)"> </text><text class="cls-8" transform="translate(108.57 39.73) scale(1.41 1)">design<tspan class="cls-6" x="18.08" y="0">e</tspan></text><text class="cls-1" transform="translate(138.5 39.73) scale(1.41 1)">r</text><text class="cls-9" transform="translate(5.82 28.74)">VINEET</text><text class="cls-10" transform="translate(66.48 28.74)"> </text><text class="cls-11" transform="translate(71.13 28.74)">KAMBOJ</text></svg>