<?xml version="1.0" encoding="UTF-8"?>
<svg width="800px" height="711px" viewBox="0 0 800 711" version="1.1" xmlns="http://www.w3.org/2000/svg" xmlns:xlink="http://www.w3.org/1999/xlink">
    <!-- Generator: Sketch 46.2 (44496) - http://www.bohemiancoding.com/sketch -->
    <title>3</title>
    <desc>Created with Sketch.</desc>
    <defs></defs>
    <g id="Page-2" stroke="none" stroke-width="1" fill="none" fill-rule="evenodd">
        <g id="2" transform="translate(0.000000, -424.000000)"></g>
        <g id="3">
            <rect id="Rectangle-3" fill="#FFFFFF" x="0" y="0" width="800" height="711"></rect>
            <g id="Social-Interactions" transform="translate(44.000000, 336.000000)">
                <text id="5-social-interaction" font-family="Helvetica-Bold, Helvetica" font-size="20" font-weight="bold" line-spacing="13" letter-spacing="0.399999976" fill="#000000">
                    <tspan x="256" y="19">5 social interactions</tspan>
                </text>
                <text id="co-existence" font-family="Helvetica-Bold, Helvetica" font-size="15" font-weight="bold" line-spacing="13" letter-spacing="0.299999982" fill="#9B9B9B">
                    <tspan x="0" y="68">co-existence</tspan>
                </text>
                <text id="communication" font-family="Helvetica-Bold, Helvetica" font-size="15" font-weight="bold" line-spacing="13" letter-spacing="0.299999982" fill="#9B9B9B">
                    <tspan x="152" y="68">communication</tspan>
                </text>
                <text id="coordination" font-family="Helvetica-Bold, Helvetica" font-size="15" font-weight="bold" line-spacing="13" letter-spacing="0.299999982" fill="#9B9B9B">
                    <tspan x="323" y="68">coordination</tspan>
                </text>
                <text id="consensus" font-family="Helvetica-Bold, Helvetica" font-size="15" font-weight="bold" line-spacing="13" letter-spacing="0.299999982" fill="#9B9B9B">
                    <tspan x="475" y="68">consensus</tspan>
                </text>
                <text id="collaboration" font-family="Helvetica-Bold, Helvetica" font-size="15" font-weight="bold" line-spacing="13" letter-spacing="0.299999982" fill="#9B9B9B">
                    <tspan x="613" y="68">collaboration</tspan>
                </text>
                <g id="Icons" transform="translate(21.000000, 89.000000)" fill-rule="nonzero" fill="#4A4A4A">
                    <g id="Co-existence" transform="translate(0.000000, 7.000000)">
                        <g id="Group">
                            <path d="M27.7867969,40.8501562 L27.1828125,40.989375 L28.164375,41.5729687 C28.2508594,41.6257031 28.3303125,41.6728125 28.4160937,41.7192187 C28.6017187,41.8190625 28.7873437,41.9245312 28.9603125,42.0510937 C29.0397656,42.1108594 29.1192187,42.170625 29.1529687,42.2634375 C29.1796875,42.3295312 29.1796875,42.429375 29.0467969,42.5552344 C28.9603125,42.6346875 28.8541406,42.6810937 28.7746875,42.6944531 L28.7085937,42.6944531 C28.6094531,42.688125 28.4632031,42.6079687 28.3373437,42.5355469 C28.0652344,42.3766406 27.793125,42.2240625 27.5280469,42.0644531 C27.0639844,41.7923437 26.60625,41.5202344 26.1351562,41.2614844 C26.015625,41.1883594 25.8700781,41.0892187 25.8236719,40.9366406 C25.8103125,40.8705469 25.7969531,40.7510156 25.9164844,40.545 C26.1021094,40.2461719 26.274375,39.9417187 26.4473437,39.6428906 C26.7194531,39.1788281 26.9845312,38.7210937 27.2629687,38.2767187 C27.3227344,38.1902344 27.4021875,38.1107812 27.4816406,38.064375 C27.5280469,38.0376562 27.5878125,38.0242969 27.6405469,38.0242969 C27.6932812,38.0242969 27.7530469,38.0376562 27.8128125,38.0573437 C27.9126562,38.0974219 27.9850781,38.1698437 28.0054687,38.25 C28.0321875,38.3561719 27.9857812,38.4489844 27.9260156,38.548125 L26.9838281,40.1934375 L27.5210156,40.0872656 C27.6539062,40.0605469 27.7734375,40.0345312 27.8992969,40.0007812 C34.0284375,38.3357812 37.9821094,34.3954687 39.6471094,28.299375 L39.6871875,28.1664844 C39.706875,28.1067187 39.7272656,28.0469531 39.7399219,27.9871875 C39.8060156,27.6419531 39.8397656,27.523125 39.9789844,27.4633594 C40.111875,27.4035937 40.2975,27.45 40.3903125,27.5695312 C40.4564062,27.6489844 40.483125,27.7551562 40.4697656,27.855 C39.8327344,32.0477344 35.9261719,38.9657812 27.7867969,40.8501562 Z" id="Shape"></path>
                            <path d="M23.6805469,5.10890625 C23.461875,5.38101563 23.2495313,5.653125 23.0371875,5.9315625 C22.7123438,6.34921875 22.3867969,6.77390625 22.0422656,7.17890625 C21.9825,7.25835938 21.8896875,7.32515625 21.8032031,7.35820313 C21.763125,7.3715625 21.72375,7.38492188 21.6836719,7.38492188 C21.6175781,7.38492188 21.5444531,7.36523438 21.4713281,7.32515625 C21.3785156,7.27242188 21.3124219,7.19226563 21.3053906,7.10648438 C21.2920313,6.99398438 21.3651563,6.89414063 21.4249219,6.82101563 L22.5724219,5.31492188 L22.0289063,5.34796875 C21.8960156,5.35429688 21.7701563,5.36765625 21.6442969,5.38804688 C15.3492187,6.23039063 10.9110937,9.61382813 8.4571875,15.4378125 L8.39742187,15.5636719 C8.37070312,15.6234375 8.3446875,15.6761719 8.32429687,15.7359375 C8.21179687,16.0678125 8.15835937,16.1803125 8.01914062,16.2203906 C7.98609375,16.2267187 7.95304687,16.23375 7.92632812,16.23375 L7.92632812,16.4861719 L7.90664062,16.23375 C7.80046875,16.2274219 7.70132812,16.1739844 7.63453125,16.0811719 C7.57476562,15.9883594 7.55507812,15.8758594 7.58179687,15.7696875 C8.769375,11.6964844 13.5520312,5.355 21.87,4.5590625 L22.4866406,4.49929688 L21.5908594,3.78984375 C21.5177344,3.73710938 21.4446094,3.68367188 21.3454688,3.60421875 C21.1795313,3.4846875 21.0135938,3.35882813 20.8610156,3.21257813 C20.7949219,3.13945313 20.7217969,3.07335938 20.7021094,2.98054688 C20.6824219,2.91445313 20.6957813,2.80828125 20.8413281,2.7084375 C20.9341406,2.64164063 21.0403125,2.6015625 21.1464844,2.6015625 C21.2660156,2.60789063 21.4115625,2.7140625 21.5444531,2.81390625 C21.7898438,3.0065625 22.0352344,3.19851563 22.2876563,3.39117188 C22.7053125,3.72304688 23.13,4.04789063 23.5546875,4.37273438 C23.6608594,4.44585938 23.8000781,4.57171875 23.8197656,4.730625 C23.833125,4.80375 23.8267969,4.92328125 23.6805469,5.10890625 Z" id="Shape"></path>
                            <path d="M44.1007031,19.2178125 C43.155,17.116875 40.9492969,16.2499219 38.7063281,15.6255469 C37.1130469,15.1811719 36.5702344,14.5666406 36.7692187,13.4325 C36.8001562,13.258125 36.9935156,13.0359375 37.1988281,12.8003906 C37.2916406,12.6949219 37.3823437,12.5901562 37.4646094,12.4860937 C38.0109375,11.7998437 38.4321094,11.025 38.6929687,10.220625 C39.133125,10.08 39.4664062,9.80015625 39.6857812,9.388125 C40.0176562,8.76796875 40.1857031,8.06765625 40.1857031,7.306875 C40.1857031,6.70148437 39.92625,6.23742187 39.4523437,5.98640625 C39.5866406,4.798125 39.34125,3.77578125 38.7210937,2.94820312 C37.6228125,1.47585937 35.6709375,0.596953125 33.5010937,0.596953125 C31.3284375,0.596953125 29.3723437,1.47515625 28.2705469,2.9475 C27.6546094,3.77015625 27.4078125,4.786875 27.5392969,5.98640625 C27.0653906,6.23742187 26.8059375,6.70148437 26.8059375,7.306875 C26.8059375,8.06625 26.9739844,8.7665625 27.3051562,9.38742187 C27.5245312,9.79875 27.8585156,10.0785937 28.2979687,10.2199219 C28.5532031,11.0123437 28.9764844,11.7942187 29.5249219,12.4846875 C29.6085937,12.5901562 29.6985937,12.6942187 29.7907031,12.7996875 C29.9875781,13.0239844 30.1900781,13.2553125 30.2224219,13.4317969 C30.4214062,14.5659375 29.8785937,15.1811719 28.2846094,15.6255469 C26.3165625,16.1725781 23.7832031,17.240625 22.8902344,19.2178125 C22.5555469,19.9603125 22.5801562,20.7808594 22.60125,21.5071875 L22.6089844,21.7146094 C22.6125,21.8088281 22.6146094,21.9375 22.6146094,22.0535156 C22.6110937,22.89375 23.2565625,23.2804687 23.5673437,23.4667969 L23.6622656,23.52375 C24.0278906,23.7515625 24.4230469,23.9878125 24.8428125,24.1769531 C27.3290625,25.2970312 30.2772656,25.8883594 33.3675,25.8883594 C35.2919531,25.8883594 37.1875781,25.6626562 39.0086719,25.2161719 C40.3945312,24.8758594 42.1192969,24.4525781 43.3771875,23.4921094 L43.4292187,23.4625781 C43.7378906,23.2776562 44.3798437,22.8916406 44.3749219,22.0577344 C44.3749219,21.9375 44.3770312,21.8088281 44.3805469,21.7132031 L44.3889844,21.4783594 C44.4121875,20.7675 44.4367969,19.963125 44.1007031,19.2178125 Z M42.7366406,21.9564844 C42.7057031,21.9775781 42.6564844,22.0092187 42.5770312,22.0563281 C42.51375,22.0907812 42.4525781,22.1280469 42.3942187,22.1723437 C41.3929687,22.93875 39.8510156,23.3163281 38.6128125,23.6200781 C36.9253125,24.0342187 35.1604687,24.24375 33.3682031,24.24375 C30.5092969,24.24375 27.7952344,23.7023437 25.5192187,22.6785937 C25.1760937,22.5232031 24.8407031,22.32 24.5608594,22.1463281 C24.5144531,22.1146875 24.4638281,22.08375 24.4082812,22.0535156 L24.2690625,21.9684375 C24.2655469,21.9663281 24.2627344,21.9649219 24.2599219,21.9628125 C24.2585156,21.8496094 24.2564062,21.7378125 24.2535937,21.6520312 L24.2451562,21.4277344 C24.2282812,20.8694531 24.2114062,20.2921875 24.3892969,19.8949219 C25.0530469,18.4260937 27.3916406,17.5830469 28.726875,17.2103906 C31.1491406,16.5360937 32.1975,15.1685156 31.8417187,13.1463281 C31.7292187,12.5170312 31.3410937,12.0740625 31.0303125,11.7189844 L31.0028906,11.6866406 C30.9389062,11.6128125 30.8742187,11.5396875 30.81375,11.46375 C30.375,10.9103906 30.0410156,10.2888281 29.8483594,9.66445312 C29.829375,9.60820312 29.8174219,9.5484375 29.7963281,9.4471875 L29.6282812,8.69695312 L28.9870312,8.68078125 C28.7894531,8.67585937 28.7704687,8.63929687 28.7571094,8.61539062 C28.5707812,8.26664062 28.468125,7.86867187 28.4526562,7.4165625 C28.4913281,7.40953125 28.5292969,7.4025 28.5658594,7.39546875 L29.4075,7.23726562 L29.2317187,6.19101562 C29.2127344,6.08273437 29.1951562,5.98007812 29.1825,5.88023437 C29.0770312,5.07585937 29.2092187,4.44023437 29.5867969,3.93539062 C30.3799219,2.87578125 31.843125,2.24367187 33.5010937,2.24367187 C35.1548437,2.24367187 36.613125,2.87578125 37.4034375,3.9346875 C37.7810156,4.438125 37.9132031,5.07304687 37.8091406,5.87390625 C37.7978906,5.95828125 37.783125,6.04265625 37.7690625,6.12914062 L37.5834375,7.23726562 L38.4208594,7.39546875 C38.4588281,7.4025 38.4975,7.41023437 38.5382812,7.41726562 C38.5242187,7.86023437 38.4215625,8.263125 38.233125,8.61609375 C38.2204687,8.64 38.2007812,8.6765625 38.0032031,8.68078125 L37.3619531,8.69695312 L37.1889844,9.47179687 C37.175625,9.53789062 37.1622656,9.60328125 37.1397656,9.67148437 C36.9485156,10.2916406 36.6152344,10.9117969 36.1757812,11.4651562 C36.1075781,11.5502344 36.0351562,11.6339062 35.9578125,11.7217969 C35.6301562,12.0965625 35.2596094,12.52125 35.1478125,13.1484375 C34.7927344,15.1692187 35.8410937,16.5353906 38.2626562,17.2103906 C40.1210156,17.7278906 41.9322656,18.4113281 42.6002344,19.8935156 C42.778125,20.2907812 42.76125,20.8771875 42.744375,21.4439062 L42.7359375,21.6527344 C42.7345312,21.740625 42.733125,21.8538281 42.7366406,21.9564844 Z" id="Shape"></path>
                            <path d="M22.1083594,37.7310938 C21.1626562,35.6301563 18.9569531,34.7632031 16.7139844,34.1388281 C15.1207031,33.6944531 14.5778906,33.0799219 14.776875,31.9457813 C14.8078125,31.7714063 15.0011719,31.5492188 15.2064844,31.3136719 C15.2992969,31.2082031 15.39,31.1034375 15.4722656,30.999375 C16.0185937,30.313125 16.4397656,29.5382813 16.700625,28.7339063 C17.1407812,28.5932813 17.4740625,28.3134375 17.6934375,27.9014063 C18.0253125,27.28125 18.1933594,26.5809375 18.1933594,25.8201563 C18.1933594,25.2147656 17.9339062,24.7507031 17.46,24.4996875 C17.5942969,23.3114063 17.3489062,22.2890625 16.72875,21.4614844 C15.6304687,19.9891406 13.6785937,19.1102344 11.50875,19.1102344 C9.33609375,19.1102344 7.38,19.9884375 6.27820312,21.4607813 C5.66226562,22.2834375 5.41546875,23.3001563 5.54695312,24.4996875 C5.07304687,24.7507031 4.81359375,25.2147656 4.81359375,25.8201563 C4.81359375,26.5795313 4.98164062,27.2798438 5.3128125,27.9007031 C5.5321875,28.3120313 5.86617187,28.591875 6.305625,28.7332031 C6.56085937,29.525625 6.98414062,30.3075 7.53257812,30.9979688 C7.61625,31.1034375 7.70625,31.2075 7.79835937,31.3129688 C7.99523437,31.5372656 8.19773437,31.7685938 8.23007812,31.9450781 C8.4290625,33.0792188 7.88625,33.6944531 6.29226562,34.1388281 C4.32421875,34.6858594 1.79085937,35.7539063 0.897890625,37.7310938 C0.563203125,38.4735938 0.5878125,39.2941406 0.60890625,40.0204688 L0.616640625,40.2278906 C0.62015625,40.3221094 0.622265625,40.4507813 0.622265625,40.5667969 C0.61875,41.4070313 1.26421875,41.79375 1.575,41.9800781 L1.66992187,42.0370313 C2.03554687,42.2648438 2.43070312,42.5010938 2.85046875,42.6902344 C5.33671875,43.8103125 8.28492187,44.4016406 11.3751562,44.4016406 C13.2996094,44.4016406 15.1952344,44.1759375 17.0163281,43.7294531 C18.4021875,43.3891406 20.1269531,42.9658594 21.3848437,42.0053906 L21.436875,41.9758594 C21.7455469,41.7909375 22.3875,41.4049219 22.3825781,40.5710156 C22.3825781,40.4507813 22.3846875,40.3221094 22.3882031,40.2264844 L22.3966406,39.9916406 C22.4191406,39.2807813 22.44375,38.4757031 22.1083594,37.7310938 Z M20.7435937,40.4697656 C20.7126562,40.4908594 20.6634375,40.5225 20.5839844,40.5696094 C20.5207031,40.6040625 20.4595312,40.6413281 20.4011719,40.685625 C19.3999219,41.4520313 17.8579687,41.8296094 16.6197656,42.1333594 C14.9322656,42.5475 13.1674219,42.7570313 11.3751562,42.7570313 C8.51625,42.7570313 5.8021875,42.215625 3.52617187,41.191875 C3.18304687,41.0364844 2.84765625,40.8332813 2.5678125,40.6596094 C2.52140625,40.6279688 2.47078125,40.5970313 2.41523437,40.5667969 L2.27601562,40.4817188 C2.2725,40.4796094 2.2696875,40.4782031 2.266875,40.4760938 C2.26546875,40.3628906 2.26335937,40.2510938 2.26054687,40.1653125 L2.25210937,39.9410156 C2.23523437,39.3827344 2.21835937,38.8054688 2.39625,38.4082031 C3.06,36.939375 5.39859375,36.0963281 6.73382812,35.7236719 C9.15609375,35.049375 10.2044531,33.6817969 9.84867187,31.6596094 C9.73617187,31.0303125 9.34804687,30.5873438 9.03726562,30.2322656 L9.00984375,30.1999219 C8.94585937,30.1260938 8.88117187,30.0529688 8.82070312,29.9770313 C8.38195312,29.4236719 8.04796875,28.8021094 7.8553125,28.1777344 C7.83632812,28.1214844 7.824375,28.0617188 7.80328125,27.9604688 L7.63523437,27.2102344 L6.99398437,27.1940625 C6.79640625,27.1891406 6.77742187,27.1525781 6.7640625,27.1286719 C6.57773437,26.7799219 6.47507812,26.3819531 6.45960937,25.9298438 C6.49828125,25.9228125 6.53625,25.9157813 6.5728125,25.90875 L7.41445312,25.7505469 L7.23867187,24.7042969 C7.2196875,24.5960156 7.20210937,24.4933594 7.18945312,24.3935156 C7.08398437,23.5891406 7.21617187,22.9535156 7.59375,22.4486719 C8.386875,21.3890625 9.85007812,20.7569531 11.5080469,20.7569531 C13.1617969,20.7569531 14.6200781,21.3890625 15.4103906,22.4479688 C15.7879687,22.9514063 15.9201562,23.5863281 15.8160937,24.3871875 C15.8048437,24.4715625 15.7900781,24.5559375 15.7760156,24.6424219 L15.5903906,25.7505469 L16.4278125,25.90875 C16.4657812,25.9157813 16.5044531,25.9235156 16.5452344,25.9305469 C16.5311719,26.3735156 16.4285156,26.7764063 16.2400781,27.129375 C16.2274219,27.1532813 16.2077344,27.1898438 16.0101562,27.1940625 L15.3689062,27.2102344 L15.1980469,27.984375 C15.1846875,28.0504688 15.1713281,28.1158594 15.1488281,28.1840625 C14.9575781,28.8042188 14.6242969,29.424375 14.1848437,29.9777344 C14.1166406,30.0628125 14.0442187,30.1464844 13.966875,30.234375 C13.6392187,30.6091406 13.2686719,31.0338281 13.156875,31.6610156 C12.8017969,33.6817969 13.8501562,35.0479688 16.2717187,35.7229688 C18.1300781,36.2404688 19.9413281,36.9239063 20.6092969,38.4060938 C20.7871875,38.8033594 20.7703125,39.3897656 20.7534375,39.9564844 L20.745,40.1653125 C20.7421875,40.2532031 20.7400781,40.3671094 20.7435937,40.4697656 Z" id="Shape"></path>
                        </g>
                    </g>
                    <g id="Communication" transform="translate(147.000000, 0.000000)">
                        <g id="Group" transform="translate(0.000000, 17.542373)">
                            <path d="M23.3331677,20.1988983 C22.3073202,17.9199153 19.9146931,16.9794915 17.4816422,16.3022034 C15.7533372,15.8201695 15.1645236,15.1535593 15.3803711,13.9233051 C15.4139304,13.7341525 15.6236761,13.4931356 15.846388,13.2376271 C15.947066,13.1232203 16.0454558,13.0095763 16.1346931,12.8966949 C16.7273202,12.1522881 17.1841846,11.3117797 17.4671507,10.4392373 C17.9446083,10.2866949 18.3061338,9.98313559 18.5440999,9.53618644 C18.9040999,8.86347458 19.086388,8.10381356 19.086388,7.27855932 C19.086388,6.62186441 18.8049473,6.11847458 18.2908795,5.84618644 C18.4365575,4.55720339 18.1703711,3.44822034 17.4976592,2.55050847 C16.3063033,0.953389831 14.1890151,0 11.8352863,0 C9.47850664,0 7.35664224,0.952627119 6.16147275,2.54974576 C5.49333715,3.44211864 5.22562529,4.545 5.36825241,5.84618644 C4.85418461,6.11847458 4.57274393,6.62186441 4.57274393,7.27855932 C4.57274393,8.10228814 4.75503207,8.86194915 5.11426936,9.53542373 C5.35223546,9.98161017 5.71452359,10.2851695 6.19121851,10.4384746 C6.46808292,11.2980508 6.92723546,12.1461864 7.52215071,12.8951695 C7.61291342,13.0095763 7.71054054,13.1224576 7.8104558,13.2368644 C8.02401512,13.4801695 8.24367614,13.7311017 8.27876088,13.9225424 C8.49460834,15.1527966 7.90579478,15.8201695 6.17672698,16.3022034 C4.04189647,16.8955932 1.29384563,18.0541525 0.325201559,20.1988983 C-0.0378492883,21.004322 -0.0111543731,21.8944068 0.0117269828,22.6822881 L0.0201168133,22.9072881 C0.0239303727,23.0094915 0.0262185083,23.1490678 0.0262185083,23.2749153 C0.0224049489,24.1863559 0.72257444,24.6058475 1.05969308,24.8079661 L1.16265919,24.8697458 C1.55926936,25.1168644 1.98791342,25.3731356 2.44325241,25.5783051 C5.14020156,26.7933051 8.33825241,27.4347458 11.6903711,27.4347458 C13.7779134,27.4347458 15.8341846,27.1899153 17.8096083,26.7055932 C19.3129134,26.3364407 21.1838456,25.8772881 22.5483372,24.8354237 L22.6047778,24.8033898 C22.9396083,24.6027966 23.6359643,24.1840678 23.6306253,23.2794915 C23.6306253,23.1490678 23.6329134,23.0094915 23.636727,22.9057627 L23.6458795,22.6510169 C23.6702863,21.8799153 23.6969812,21.0066102 23.3331677,20.1988983 Z M21.8527439,23.169661 C21.8191846,23.1925424 21.7657948,23.2268644 21.6796083,23.2779661 C21.6109643,23.315339 21.5446083,23.3557627 21.4813033,23.4038136 C20.3952016,24.2351695 18.7225744,24.6447458 17.3794388,24.9742373 C15.5489304,25.4234746 13.6345236,25.6507627 11.6903711,25.6507627 C8.58918461,25.6507627 5.64511681,25.0634746 3.17621851,23.9529661 C2.80401512,23.7844068 2.44020156,23.5639831 2.13664224,23.3755932 C2.08630325,23.3412712 2.031388,23.3077119 1.97113376,23.2749153 L1.82011681,23.1826271 C1.81630325,23.180339 1.81325241,23.1788136 1.81020156,23.1765254 C1.80867614,23.0537288 1.806388,22.9324576 1.80333715,22.8394068 L1.79418461,22.5961017 C1.77587953,21.9905085 1.75757444,21.364322 1.95054054,20.9333898 C2.67054054,19.3400847 5.2073202,18.4255932 6.65571003,18.0213559 C9.28325241,17.2899153 10.4204558,15.8064407 10.0345236,13.6128814 C9.91248969,12.9302542 9.49147275,12.4497458 9.1543541,12.0645763 L9.12460834,12.0294915 C9.05520156,11.9494068 8.98503207,11.8700847 8.91943885,11.7877119 C8.44350664,11.1874576 8.08121851,10.5132203 7.87223546,9.8359322 C7.85164224,9.77491525 7.83867614,9.71008475 7.81579478,9.60025424 L7.63350664,8.78644068 L6.93791342,8.76889831 C6.72359139,8.76355932 6.70299817,8.72389831 6.68850664,8.6979661 C6.486388,8.31966102 6.37503207,7.8879661 6.35825241,7.39754237 C6.40020156,7.38991525 6.441388,7.38228814 6.48104902,7.37466102 L7.39401512,7.20305085 L7.20333715,6.06813559 C7.18274393,5.95067797 7.16367614,5.83932203 7.14994732,5.73101695 C7.03554054,4.85847458 7.17893037,4.16898305 7.58850664,3.62135593 C8.44884563,2.47194915 10.036049,1.78627119 11.8345236,1.78627119 C13.6284219,1.78627119 15.2102863,2.47194915 16.0675744,3.62059322 C16.4771507,4.16669492 16.6205405,4.85542373 16.5076592,5.72415254 C16.4954558,5.81567797 16.4794388,5.90720339 16.4641846,6.00101695 L16.2628287,7.20305085 L17.1712185,7.37466102 C17.2124049,7.38228814 17.2543541,7.39067797 17.2985914,7.39830508 C17.2833372,7.87881356 17.1719812,8.31584746 16.9675744,8.69872881 C16.9538456,8.72466102 16.9324897,8.76432203 16.7181677,8.76889831 L16.0225744,8.78644068 L15.8372355,9.62618644 C15.8227439,9.69788136 15.8082524,9.76881356 15.7838456,9.84279661 C15.576388,10.5155085 15.2148626,11.1882203 14.7381677,11.7884746 C14.6641846,11.8807627 14.5856253,11.9715254 14.501727,12.0668644 C14.1463033,12.4733898 13.7443541,12.9340678 13.6230829,13.6144068 C13.2379134,15.8064407 14.3751168,17.2883898 17.0018965,18.0205932 C19.0177439,18.5819492 20.9824897,19.3233051 21.707066,20.9311017 C21.9000321,21.3620339 21.881727,21.9981356 21.8634219,22.6128814 L21.8542694,22.8394068 C21.8512185,22.9347458 21.8489304,23.0583051 21.8527439,23.169661 Z" id="Shape"></path>
                            <path d="M76.7229982,20.1988983 C75.6971507,17.9199153 73.3045236,16.9794915 70.8714727,16.3022034 C69.1431677,15.8201695 68.5543541,15.1535593 68.7702016,13.9233051 C68.8037609,13.7341525 69.0135066,13.4931356 69.2362185,13.2376271 C69.3368965,13.1232203 69.4352863,13.0095763 69.5245236,12.8966949 C70.1171507,12.1522881 70.5740151,11.3117797 70.8569812,10.4392373 C71.3344388,10.2866949 71.6959643,9.98313559 71.9339304,9.53618644 C72.2939304,8.86347458 72.4762185,8.10381356 72.4762185,7.27855932 C72.4762185,6.62186441 72.1947778,6.11847458 71.68071,5.84618644 C71.826388,4.55720339 71.5602016,3.44822034 70.8874897,2.55050847 C69.6961338,0.953389831 67.5788456,0 65.2251168,0 C62.8683372,0 60.7464727,0.952627119 59.5513033,2.54974576 C58.8831677,3.44211864 58.6154558,4.545 58.7580829,5.84618644 C58.2440151,6.11847458 57.9625744,6.62186441 57.9625744,7.27855932 C57.9625744,8.10228814 58.1448626,8.86194915 58.5040999,9.53542373 C58.742066,9.98161017 59.1043541,10.2851695 59.581049,10.4384746 C59.8579134,11.2980508 60.317066,12.1461864 60.9119812,12.8951695 C61.0027439,13.0095763 61.1003711,13.1224576 61.2002863,13.2368644 C61.4138456,13.4801695 61.6335066,13.7311017 61.6685914,13.9225424 C61.8844388,15.1527966 61.2956253,15.8201695 59.5665575,16.3022034 C57.431727,16.8955932 54.6836761,18.0541525 53.7150321,20.1988983 C53.3519812,21.004322 53.3786761,21.8944068 53.4015575,22.6822881 L53.4099473,22.9072881 C53.4137609,23.0094915 53.416049,23.1490678 53.416049,23.2749153 C53.4122355,24.1863559 54.1124049,24.6058475 54.4495236,24.8079661 L54.5524897,24.8697458 C54.9490999,25.1168644 55.3777439,25.3731356 55.8330829,25.5783051 C58.5300321,26.7933051 61.7280829,27.4347458 65.0802016,27.4347458 C67.1677439,27.4347458 69.2240151,27.1899153 71.1994388,26.7055932 C72.7027439,26.3364407 74.5736761,25.8772881 75.9381677,24.8354237 L75.9946083,24.8033898 C76.3294388,24.6027966 77.0257948,24.1840678 77.0204558,23.2794915 C77.0204558,23.1490678 77.0227439,23.0094915 77.0265575,22.9057627 L77.03571,22.6510169 C77.0601168,21.8799153 77.0868117,21.0066102 76.7229982,20.1988983 Z M75.2425744,23.169661 C75.2090151,23.1925424 75.1556253,23.2268644 75.0694388,23.2779661 C75.0007948,23.315339 74.9344388,23.3557627 74.8711338,23.4038136 C73.7850321,24.2351695 72.1124049,24.6447458 70.7692694,24.9742373 C68.9387609,25.4234746 67.0243541,25.6507627 65.0802016,25.6507627 C61.9790151,25.6507627 59.0349473,25.0634746 56.566049,23.9529661 C56.1938456,23.7844068 55.8300321,23.5639831 55.5264727,23.3755932 C55.4761338,23.3412712 55.4212185,23.3077119 55.3609643,23.2749153 L55.2099473,23.1826271 C55.2061338,23.180339 55.2030829,23.1788136 55.2000321,23.1765254 C55.1985066,23.0537288 55.1962185,22.9324576 55.1931677,22.8394068 L55.1840151,22.5961017 C55.16571,21.9905085 55.1474049,21.364322 55.3403711,20.9333898 C56.0603711,19.3400847 58.5971507,18.4255932 60.0455405,18.0213559 C62.6730829,17.2899153 63.8102863,15.8064407 63.4243541,13.6128814 C63.3023202,12.9302542 62.8813033,12.4497458 62.5441846,12.0645763 L62.5144388,12.0294915 C62.4450321,11.9494068 62.3748626,11.8700847 62.3092694,11.7877119 C61.8333372,11.1874576 61.471049,10.5132203 61.262066,9.8359322 C61.2414727,9.77491525 61.2285066,9.71008475 61.2056253,9.60025424 L61.0233372,8.78644068 L60.3277439,8.76889831 C60.1134219,8.76355932 60.0928287,8.72389831 60.0783372,8.6979661 C59.8762185,8.31966102 59.7648626,7.8879661 59.7480829,7.39754237 C59.7900321,7.38991525 59.8312185,7.38228814 59.8708795,7.37466102 L60.7838456,7.20305085 L60.5931677,6.06813559 C60.5725744,5.95067797 60.5535066,5.83932203 60.5397778,5.73101695 C60.4253711,4.85847458 60.5687609,4.16898305 60.9783372,3.62135593 C61.8386761,2.47194915 63.4258795,1.78627119 65.2243541,1.78627119 C67.0182524,1.78627119 68.6001168,2.47194915 69.4574049,3.62059322 C69.8669812,4.16669492 70.0103711,4.85542373 69.8974897,5.72415254 C69.8852863,5.81567797 69.8692694,5.90720339 69.8540151,6.00101695 L69.6526592,7.20305085 L70.561049,7.37466102 C70.6022355,7.38228814 70.6441846,7.39067797 70.6884219,7.39830508 C70.6731677,7.87881356 70.5618117,8.31584746 70.3574049,8.69872881 C70.3436761,8.72466102 70.3223202,8.76432203 70.1079982,8.76889831 L69.4124049,8.78644068 L69.227066,9.62618644 C69.2125744,9.69788136 69.1980829,9.76881356 69.1736761,9.84279661 C68.9662185,10.5155085 68.6046931,11.1882203 68.1279982,11.7884746 C68.0540151,11.8807627 67.9754558,11.9715254 67.8915575,12.0668644 C67.5361338,12.4733898 67.1341846,12.9340678 67.0129134,13.6144068 C66.6277439,15.8064407 67.7649473,17.2883898 70.391727,18.0205932 C72.4075744,18.5819492 74.3723202,19.3233051 75.0968965,20.9311017 C75.2898626,21.3620339 75.2715575,21.9981356 75.2532524,22.6128814 L75.2440999,22.8394068 C75.241049,22.9347458 75.2387609,23.0583051 75.2425744,23.169661 Z" id="Shape-Copy"></path>
                        </g>
                        <g id="Group" transform="translate(20.593220, 0.000000)">
                            <path d="M0,3.1763975 L0,18.8648287 C0,19.21997 0.193124277,19.5474604 0.504628983,19.7194144 C0.651524407,19.800639 0.813973463,19.8408192 0.976422519,19.8408192 C1.15701748,19.8408192 1.33804449,19.7902699 1.49660514,19.6904674 L5.19232117,17.3647672 L13.3955665,17.3647672 L13.3955665,22.5683216 C13.3955665,24.3198335 14.8204521,25.7447191 16.572396,25.7447191 L29.7359541,25.7473113 L33.4213011,28.0699872 C33.5802937,28.1702217 33.7608887,28.220339 33.9423478,28.220339 C34.1039327,28.220339 34.2668138,28.1801588 34.4137093,28.0989342 C34.7247819,27.9274122 34.9183382,27.5994898 34.9183382,27.2439165 L34.9183382,11.5563494 C34.9183382,9.80483745 33.4934526,8.37995185 31.7415087,8.37995185 L21.5223397,8.37995185 L21.5223397,3.1763975 C21.5223397,1.42488561 20.0974541,0 18.3455102,0 L3.1763975,0 C1.42488561,0 0,1.42488561 0,3.1763975 Z M21.5223397,14.1888017 L21.5223397,9.64886908 L31.7410766,9.64886908 C32.7926751,9.64886908 33.6481249,10.5043189 33.6481249,11.5563494 L33.6481249,26.7133648 L30.4125372,24.6741106 C30.2064515,24.544065 29.9692586,24.4758018 29.7260171,24.4758018 L16.5715319,24.4758018 C15.5199335,24.4758018 14.6644837,23.620352 14.6644837,22.5683216 L14.6644837,17.3651993 L18.3455102,17.3651993 C20.0974541,17.3651993 21.5223397,15.9403136 21.5223397,14.1888017 Z M14.6644837,16.09585 L14.6644837,11.5563494 C14.6644837,10.5047509 15.5199335,9.64886908 16.5715319,9.64886908 L20.2525584,9.64886908 L20.2525584,14.1883697 C20.2525584,15.2399681 19.3971086,16.09585 18.3455102,16.09585 L14.6644837,16.09585 Z M20.2529905,3.1763975 L20.2529905,8.37995185 L16.571964,8.37995185 C14.82002,8.37995185 13.3951344,9.80483745 13.3951344,11.5563494 L13.3951344,16.09585 L5.19188912,16.09585 C4.94821554,16.09585 4.71102263,16.1641131 4.50580108,16.2941588 L1.26934927,18.333845 L1.26934927,3.1763975 C1.26934927,2.12479909 2.12479909,1.26891723 3.1763975,1.26891723 L18.3455102,1.26891723 C19.3975406,1.26891723 20.2529905,2.12479909 20.2529905,3.1763975 Z" id="Shape"></path>
                        </g>
                    </g>
                    <g id="Coordination" transform="translate(318.000000, 0.000000)">
                        <path d="M37.1538462,18.6923077 L37.1538462,4.76923077 L41.3076923,4.76923077 C41.3076923,4.38461538 41.2307692,4.07692308 41.2307692,3.69230769 C41.2307692,3.30769231 41.3076923,2.92307692 41.3076923,2.61538462 L36.0769231,2.61538462 C35.4615385,2.61538462 35,3.07692308 35,3.69230769 L35,18.6923077 L28.7692308,18.6923077 C28.1538462,18.6923077 27.6923077,19.1538462 27.6923077,19.7692308 C27.6923077,20.3846154 28.1538462,20.8461538 28.7692308,20.8461538 L35,20.8461538 L35,35.8461538 C35,36.4615385 35.4615385,36.9230769 36.0769231,36.9230769 L41.3076923,36.9230769 C41.2307692,36.5384615 41.2307692,36.2307692 41.2307692,35.8461538 C41.2307692,35.4615385 41.3076923,35.0769231 41.3076923,34.7692308 L37.1538462,34.7692308 L37.1538462,20.8461538 L41.3076923,20.8461538 C41.3076923,20.5384615 41.2307692,20.1538462 41.2307692,19.7692308 C41.2307692,19.3846154 41.3076923,19 41.3076923,18.6923077 L37.1538462,18.6923077 Z M46.5384615,32.1538462 C44.5384615,32.1538462 42.8461538,33.7692308 42.8461538,35.8461538 C42.8461538,37.8461538 44.4615385,39.5384615 46.5384615,39.5384615 C48.5384615,39.5384615 50.2307692,37.9230769 50.2307692,35.8461538 C50.2307692,33.8461538 48.6153846,32.1538462 46.5384615,32.1538462 Z M46.5384615,0 C44.5384615,0 42.8461538,1.61538462 42.8461538,3.69230769 C42.8461538,5.76923077 44.4615385,7.38461538 46.5384615,7.38461538 C48.5384615,7.38461538 50.2307692,5.76923077 50.2307692,3.69230769 C50.2307692,1.61538462 48.6153846,0 46.5384615,0 Z M50.2307692,19.7692308 C50.2307692,21.7692308 48.6153846,23.4615385 46.5384615,23.4615385 C44.5384615,23.4615385 42.8461538,21.8461538 42.8461538,19.7692308 C42.8461538,17.7692308 44.4615385,16.0769231 46.5384615,16.0769231 C48.6153846,16.0769231 50.2307692,17.7692308 50.2307692,19.7692308 Z M48.3846154,19.7692308 C48.3846154,18.7692308 47.6153846,18 46.6153846,18 C45.6153846,18 44.8461538,18.7692308 44.8461538,19.7692308 C44.8461538,20.7692308 45.6153846,21.5384615 46.6153846,21.5384615 C47.5384615,21.5384615 48.3846154,20.7692308 48.3846154,19.7692308 Z" id="Shape"></path>
                        <path d="M23.5325964,28.8330769 C22.4979811,26.5346154 20.0849041,25.5861538 17.631058,24.9030769 C15.8879811,24.4169231 15.2941349,23.7446154 15.5118272,22.5038462 C15.5456734,22.3130769 15.7572118,22.07 15.9818272,21.8123077 C16.0833657,21.6969231 16.1825964,21.5823077 16.2725964,21.4684615 C16.8702888,20.7176923 17.331058,19.87 17.6164426,18.99 C18.0979811,18.8361538 18.4625964,18.53 18.7025964,18.0792308 C19.0656734,17.4007692 19.2495195,16.6346154 19.2495195,15.8023077 C19.2495195,15.14 18.9656734,14.6323077 18.4472118,14.3576923 C18.5941349,13.0576923 18.3256734,11.9392308 17.6472118,11.0338462 C16.4456734,9.42307692 14.3102888,8.46153846 11.9364426,8.46153846 C9.55951952,8.46153846 7.41951952,9.42230769 6.21413491,11.0330769 C5.54028875,11.9330769 5.27028875,13.0453846 5.41413491,14.3576923 C4.89567337,14.6323077 4.61182721,15.14 4.61182721,15.8023077 C4.61182721,16.6330769 4.79567337,17.3992308 5.15798106,18.0784615 C5.39798106,18.5284615 5.76336567,18.8346154 6.24413491,18.9892308 C6.52336567,19.8561538 6.9864426,20.7115385 7.5864426,21.4669231 C7.67798106,21.5823077 7.7764426,21.6961538 7.87721183,21.8115385 C8.09259644,22.0569231 8.31413491,22.31 8.34951952,22.5030769 C8.56721183,23.7438462 7.97336567,24.4169231 6.22951952,24.9030769 C4.0764426,25.5015385 1.30490414,26.67 0.32798106,28.8330769 C-0.0381727865,29.6453846 -0.0112497096,30.5430769 0.0118272135,31.3376923 L0.0202887519,31.5646154 C0.0241349058,31.6676923 0.0264425981,31.8084615 0.0264425981,31.9353846 C0.0225964442,32.8546154 0.72875029,33.2776923 1.06875029,33.4815385 L1.17259644,33.5438462 C1.57259644,33.7930769 2.00490414,34.0515385 2.46413491,34.2584615 C5.18413491,35.4838462 8.40951952,36.1307692 11.7902888,36.1307692 C13.8956734,36.1307692 15.9695195,35.8838462 17.9618272,35.3953846 C19.4779811,35.0230769 21.3649041,34.56 22.741058,33.5092308 L22.7979811,33.4769231 C23.1356734,33.2746154 23.8379811,32.8523077 23.8325964,31.94 C23.8325964,31.8084615 23.8349041,31.6676923 23.8387503,31.5630769 L23.8479811,31.3061538 C23.8725964,30.5284615 23.8995195,29.6476923 23.5325964,28.8330769 Z M22.0395195,31.8292308 C22.0056734,31.8523077 21.9518272,31.8869231 21.8649041,31.9384615 C21.7956734,31.9761538 21.7287503,32.0169231 21.6649041,32.0653846 C20.5695195,32.9038462 18.8825964,33.3169231 17.5279811,33.6492308 C15.6818272,34.1023077 13.751058,34.3315385 11.7902888,34.3315385 C8.66259644,34.3315385 5.69336567,33.7392308 3.20336567,32.6192308 C2.82798106,32.4492308 2.46105798,32.2269231 2.15490414,32.0369231 C2.10413491,32.0023077 2.04875029,31.9684615 1.98798106,31.9353846 L1.83567337,31.8423077 C1.83182721,31.84 1.82875029,31.8384615 1.82567337,31.8361538 C1.82413491,31.7123077 1.82182721,31.59 1.81875029,31.4961538 L1.80951952,31.2507692 C1.79105798,30.64 1.77259644,30.0084615 1.96721183,29.5738462 C2.69336567,27.9669231 5.25182721,27.0446154 6.71259644,26.6369231 C9.36259644,25.8992308 10.5095195,24.4030769 10.1202888,22.1907692 C9.99721183,21.5023077 9.57259644,21.0176923 9.23259644,20.6292308 L9.20259644,20.5938462 C9.13259644,20.5130769 9.06182721,20.4330769 8.99567337,20.35 C8.51567337,19.7446154 8.15028875,19.0646154 7.93951952,18.3815385 C7.91875029,18.32 7.90567337,18.2546154 7.88259644,18.1438462 L7.69875029,17.3230769 L6.99721183,17.3053846 C6.78105798,17.3 6.76028875,17.26 6.74567337,17.2338462 C6.54182721,16.8523077 6.42951952,16.4169231 6.41259644,15.9223077 C6.45490414,15.9146154 6.4964426,15.9069231 6.5364426,15.8992308 L7.45721183,15.7261538 L7.26490414,14.5815385 C7.24413491,14.4630769 7.22490414,14.3507692 7.21105798,14.2415385 C7.09567337,13.3615385 7.24028875,12.6661538 7.65336567,12.1138462 C8.52105798,10.9546154 10.1218272,10.2630769 11.9356734,10.2630769 C13.7449041,10.2630769 15.3402888,10.9546154 16.2049041,12.1130769 C16.6179811,12.6638462 16.7625964,13.3584615 16.6487503,14.2346154 C16.6364426,14.3269231 16.6202888,14.4192308 16.6049041,14.5138462 L16.4018272,15.7261538 L17.3179811,15.8992308 C17.3595195,15.9069231 17.4018272,15.9153846 17.4464426,15.9230769 C17.431058,16.4076923 17.3187503,16.8484615 17.1125964,17.2346154 C17.0987503,17.2607692 17.0772118,17.3007692 16.861058,17.3053846 L16.1595195,17.3230769 L15.9725964,18.17 C15.9579811,18.2423077 15.9433657,18.3138462 15.9187503,18.3884615 C15.7095195,19.0669231 15.3449041,19.7453846 14.8641349,20.3507692 C14.7895195,20.4438462 14.7102888,20.5353846 14.6256734,20.6315385 C14.2672118,21.0415385 13.8618272,21.5061538 13.7395195,22.1923077 C13.351058,24.4030769 14.4979811,25.8976923 17.1472118,26.6361538 C19.1802888,27.2023077 21.1618272,27.95 21.8925964,29.5715385 C22.0872118,30.0061538 22.0687503,30.6476923 22.0502888,31.2676923 L22.041058,31.4961538 C22.0379811,31.5923077 22.0356734,31.7169231 22.0395195,31.8292308 Z" id="Shape-Copy-2"></path>
                    </g>
                    <g id="Consensus" transform="translate(461.000000, 0.000000)">
                        <path d="M36.587033,5.1036473 C36.0931309,4.85980384 35.4959504,5.06070764 35.2476536,5.55424204 L31.8850167,12.2932002 L29.5354273,9.93185557 C29.1384704,9.57110924 28.5297971,9.5864779 28.151366,9.96680234 C27.7729349,10.3471268 27.7576427,10.9588454 28.1165932,11.3577883 L31.4508534,14.7115821 C31.6407174,14.896844 31.895652,14.999328 32.1602705,14.9967687 C32.214101,15.0010771 32.2681871,15.0010771 32.3220176,14.9967687 C32.6407642,14.9449226 32.9152817,14.7422489 33.0598113,14.4520624 L37.032547,6.466839 C37.1547168,6.2269349 37.1763735,5.94789828 37.0926951,5.69185756 C37.0090166,5.43581684 36.8269501,5.22402828 36.587033,5.1036473 Z" id="Shape"></path>
                        <path d="M42.18,19.1424295 C42.0809524,18.8681499 41.9942857,18.5910133 41.92,18.3110195 C41.7958796,17.8485009 41.7108189,17.3763764 41.6657143,16.8996225 C43.7085714,15.1082339 44.9542857,12.7368583 44.9542857,10.1340593 C44.9542857,4.53418443 39.2171429,0 32.1428571,0 C25.0685714,0 19.3314286,4.53418443 19.3314286,10.1197739 C19.3314286,12.7197159 20.5771429,15.0939485 22.62,16.8853371 C22.5752015,17.3581639 22.4911013,17.8264386 22.3685714,18.2853058 C22.2942857,18.5652996 22.207619,18.8424362 22.1085714,19.1167158 C21.5490881,20.6100978 20.5685386,21.9091975 19.2857143,22.8566323 L19.7457143,22.8566323 C21.1108951,22.8679201 22.4711788,22.6920004 23.7885714,22.3337868 C25.0313904,22.011545 26.1932946,21.4335252 27.2,20.6366819 C27.5472541,20.3646632 27.8634508,20.0551805 28.1428571,19.7138453 C30.7672689,20.3851864 33.5184454,20.3851864 36.1428571,19.7138453 C36.4184271,20.0504093 36.7297811,20.3560085 37.0714286,20.6252535 C38.0797199,21.4193942 39.2425806,21.9944865 40.4857143,22.3137872 C41.8058622,22.6797565 43.1700742,22.8624164 44.54,22.8566323 L45,22.8566323 C43.722176,21.9157063 42.7430093,20.6260526 42.18,19.1424295 L42.18,19.1424295 Z M40.7714286,21.3538087 C39.6637665,21.0702584 38.6267793,20.5605312 37.7257143,19.8566993 L37.7257143,19.8566993 L37.7257143,19.8566993 C37.442026,19.632874 37.183379,19.3790225 36.9542857,19.0995733 L36.5314286,18.5710137 L35.9028571,18.7338672 C33.4361437,19.3667807 30.8495706,19.3667807 28.3828571,18.7338672 L27.7542857,18.5710137 L27.3428571,19.088145 C27.1137638,19.3675942 26.8551169,19.6214457 26.5714286,19.845271 L26.5714286,19.845271 L26.5714286,19.845271 C25.6679638,20.5545821 24.6268838,21.0682998 23.5142857,21.3538087 C22.9702081,21.5050807 22.41658,21.6196219 21.8571429,21.6966582 C22.3544731,21.0192736 22.7590088,20.2784421 23.06,19.4938502 L23.06,19.4738507 C23.1685714,19.1881428 23.2657143,18.8652929 23.3457143,18.5595854 C23.4848666,18.0418239 23.5804382,17.5133243 23.6314286,16.9796207 L23.68,16.4653465 L23.2857143,16.1253541 C21.3885714,14.459677 20.3428571,12.328296 20.3428571,10.1254881 C20.3428571,5.10274315 25.6371429,1.01997721 32.1428571,1.01997721 C38.6485714,1.01997721 43.9428571,5.10274315 43.9428571,10.1197739 C43.9428571,12.328296 42.8971429,14.459677 41,16.1196399 L40.6114286,16.4596323 L40.66,16.9739065 C40.7109903,17.5076101 40.806562,18.0361098 40.9457143,18.5538712 C41.0285714,18.8595787 41.1257143,19.1681432 41.2314286,19.4681365 L41.2314286,19.4881361 C41.530175,20.2744126 41.9327955,21.0171779 42.4285714,21.6966582 C41.8691343,21.6196219 41.3155062,21.5050807 40.7714286,21.3538087 Z" id="Shape"></path>
                        <path d="M21.8516967,38.2021429 C20.8909824,36.0678571 18.6502681,35.1871429 16.3716967,34.5528571 C14.7531253,34.1014286 14.2016967,33.4771429 14.4038396,32.325 C14.4352681,32.1478571 14.6316967,31.9221429 14.8402681,31.6828571 C14.9345538,31.5757143 15.0266967,31.4692857 15.1102681,31.3635714 C15.6652681,30.6664286 16.0931253,29.8792857 16.3581253,29.0621429 C16.8052681,28.9192857 17.1438396,28.635 17.3666967,28.2164286 C17.7038396,27.5864286 17.8745538,26.875 17.8745538,26.1021429 C17.8745538,25.4871429 17.6109824,25.0157143 17.1295538,24.7607143 C17.2659824,23.5535714 17.0166967,22.515 16.3866967,21.6742857 C15.2709824,20.1785714 13.2881253,19.2857143 11.0838396,19.2857143 C8.8766967,19.2857143 6.88955384,20.1778571 5.77026813,21.6735714 C5.14455384,22.5092857 4.89383956,23.5421429 5.02741098,24.7607143 C4.54598241,25.0157143 4.28241098,25.4871429 4.28241098,26.1021429 C4.28241098,26.8735714 4.45312527,27.585 4.78955384,28.2157143 C5.01241098,28.6335714 5.3516967,28.9178571 5.79812527,29.0614286 C6.05741098,29.8664286 6.48741098,30.6607143 7.04455384,31.3621429 C7.12955384,31.4692857 7.22098241,31.575 7.31455384,31.6821429 C7.51455384,31.91 7.72026813,32.145 7.75312527,32.3242857 C7.95526813,33.4764286 7.40383956,34.1014286 5.78455384,34.5528571 C3.78526813,35.1085714 1.2116967,36.1935714 0.304553841,38.2021429 C-0.0354461589,38.9564286 -0.0104461589,39.79 0.0109824125,40.5278571 L0.0188395554,40.7385714 C0.0224109839,40.8342857 0.0245538411,40.965 0.0245538411,41.0828571 C0.0209824125,41.9364286 0.676696698,42.3292857 0.992410984,42.5185714 L1.08883956,42.5764286 C1.46026813,42.8078571 1.8616967,43.0478571 2.28812527,43.24 C4.81383956,44.3778571 7.80883956,44.9785714 10.9481253,44.9785714 C12.9031253,44.9785714 14.8288396,44.7492857 16.6788396,44.2957143 C18.0866967,43.95 19.8388396,43.52 21.1166967,42.5442857 L21.1695538,42.5142857 C21.4831253,42.3264286 22.1352681,41.9342857 22.1302681,41.0871429 C22.1302681,40.965 22.132411,40.8342857 22.1359824,40.7371429 L22.1445538,40.4985714 C22.167411,39.7764286 22.192411,38.9585714 21.8516967,38.2021429 Z M20.4652681,40.9842857 C20.4338396,41.0057143 20.3838396,41.0378571 20.3031253,41.0857143 C20.2388396,41.1207143 20.1766967,41.1585714 20.117411,41.2035714 C19.1002681,41.9821429 17.5338396,42.3657143 16.2759824,42.6742857 C14.5616967,43.095 12.7688396,43.3078571 10.9481253,43.3078571 C8.04383956,43.3078571 5.2866967,42.7578571 2.97455384,41.7178571 C2.62598241,41.56 2.28526813,41.3535714 2.00098241,41.1771429 C1.95383956,41.145 1.90241098,41.1135714 1.84598241,41.0828571 L1.70455384,40.9964286 C1.70098241,40.9942857 1.69812527,40.9928571 1.69526813,40.9907143 C1.69383956,40.8757143 1.6916967,40.7621429 1.68883956,40.675 L1.68026813,40.4471429 C1.66312527,39.88 1.64598241,39.2935714 1.8266967,38.89 C2.50098241,37.3978571 4.8766967,36.5414286 6.23312527,36.1628571 C8.69383956,35.4778571 9.75883956,34.0885714 9.39741098,32.0342857 C9.28312527,31.395 8.88883956,30.945 8.57312527,30.5842857 L8.54526813,30.5514286 C8.48026813,30.4764286 8.41455384,30.4021429 8.35312527,30.325 C7.90741098,29.7628571 7.56812527,29.1314286 7.37241098,28.4971429 C7.35312527,28.44 7.34098241,28.3792857 7.31955384,28.2764286 L7.14883956,27.5142857 L6.49741098,27.4978571 C6.2966967,27.4928571 6.27741098,27.4557143 6.26383956,27.4314286 C6.07455384,27.0771429 5.97026813,26.6728571 5.95455384,26.2135714 C5.99383956,26.2064286 6.03241098,26.1992857 6.06955384,26.1921429 L6.92455384,26.0314286 L6.74598241,24.9685714 C6.7266967,24.8585714 6.70883956,24.7542857 6.69598241,24.6528571 C6.58883956,23.8357143 6.72312527,23.19 7.1066967,22.6771429 C7.91241098,21.6007143 9.39883956,20.9585714 11.0831253,20.9585714 C12.7631253,20.9585714 14.2445538,21.6007143 15.047411,22.6764286 C15.4309824,23.1878571 15.5652681,23.8328571 15.4595538,24.6464286 C15.4481253,24.7321429 15.4331253,24.8178571 15.4188396,24.9057143 L15.2302681,26.0314286 L16.0809824,26.1921429 C16.1195538,26.1992857 16.1588396,26.2071429 16.2002681,26.2142857 C16.1859824,26.6642857 16.0816967,27.0735714 15.8902681,27.4321429 C15.877411,27.4564286 15.857411,27.4935714 15.6566967,27.4978571 L15.0052681,27.5142857 L14.8316967,28.3007143 C14.8181253,28.3678571 14.8045538,28.4342857 14.7816967,28.5035714 C14.587411,29.1335714 14.2488396,29.7635714 13.802411,30.3257143 C13.7331253,30.4121429 13.6595538,30.4971429 13.5809824,30.5864286 C13.2481253,30.9671429 12.8716967,31.3985714 12.7581253,32.0357143 C12.397411,34.0885714 13.462411,35.4764286 15.922411,36.1621429 C17.8102681,36.6878571 19.6502681,37.3821429 20.3288396,38.8878571 C20.5095538,39.2914286 20.492411,39.8871429 20.4752681,40.4628571 L20.4666967,40.675 C20.4638396,40.7642857 20.4616967,40.88 20.4652681,40.9842857 Z" id="Shape-Copy-3"></path>
                        <path d="M64.7088396,38.2021429 C63.7481253,36.0678571 61.507411,35.1871429 59.2288396,34.5528571 C57.6102681,34.1014286 57.0588396,33.4771429 57.2609824,32.325 C57.292411,32.1478571 57.4888396,31.9221429 57.697411,31.6828571 C57.7916967,31.5757143 57.8838396,31.4692857 57.967411,31.3635714 C58.522411,30.6664286 58.9502681,29.8792857 59.2152681,29.0621429 C59.662411,28.9192857 60.0009824,28.635 60.2238396,28.2164286 C60.5609824,27.5864286 60.7316967,26.875 60.7316967,26.1021429 C60.7316967,25.4871429 60.4681253,25.0157143 59.9866967,24.7607143 C60.1231253,23.5535714 59.8738396,22.515 59.2438396,21.6742857 C58.1281253,20.1785714 56.1452681,19.2857143 53.9409824,19.2857143 C51.7338396,19.2857143 49.7466967,20.1778571 48.627411,21.6735714 C48.0016967,22.5092857 47.7509824,23.5421429 47.8845538,24.7607143 C47.4031253,25.0157143 47.1395538,25.4871429 47.1395538,26.1021429 C47.1395538,26.8735714 47.3102681,27.585 47.6466967,28.2157143 C47.8695538,28.6335714 48.2088396,28.9178571 48.6552681,29.0614286 C48.9145538,29.8664286 49.3445538,30.6607143 49.9016967,31.3621429 C49.9866967,31.4692857 50.0781253,31.575 50.1716967,31.6821429 C50.3716967,31.91 50.577411,32.145 50.6102681,32.3242857 C50.812411,33.4764286 50.2609824,34.1014286 48.6416967,34.5528571 C46.642411,35.1085714 44.0688396,36.1935714 43.1616967,38.2021429 C42.8216967,38.9564286 42.8466967,39.79 42.8681253,40.5278571 L42.8759824,40.7385714 C42.8795538,40.8342857 42.8816967,40.965 42.8816967,41.0828571 C42.8781253,41.9364286 43.5338396,42.3292857 43.8495538,42.5185714 L43.9459824,42.5764286 C44.317411,42.8078571 44.7188396,43.0478571 45.1452681,43.24 C47.6709824,44.3778571 50.6659824,44.9785714 53.8052681,44.9785714 C55.7602681,44.9785714 57.6859824,44.7492857 59.5359824,44.2957143 C60.9438396,43.95 62.6959824,43.52 63.9738396,42.5442857 L64.0266967,42.5142857 C64.3402681,42.3264286 64.992411,41.9342857 64.987411,41.0871429 C64.987411,40.965 64.9895538,40.8342857 64.9931253,40.7371429 L65.0016967,40.4985714 C65.0245538,39.7764286 65.0495538,38.9585714 64.7088396,38.2021429 Z M63.322411,40.9842857 C63.2909824,41.0057143 63.2409824,41.0378571 63.1602681,41.0857143 C63.0959824,41.1207143 63.0338396,41.1585714 62.9745538,41.2035714 C61.957411,41.9821429 60.3909824,42.3657143 59.1331253,42.6742857 C57.4188396,43.095 55.6259824,43.3078571 53.8052681,43.3078571 C50.9009824,43.3078571 48.1438396,42.7578571 45.8316967,41.7178571 C45.4831253,41.56 45.142411,41.3535714 44.8581253,41.1771429 C44.8109824,41.145 44.7595538,41.1135714 44.7031253,41.0828571 L44.5616967,40.9964286 C44.5581253,40.9942857 44.5552681,40.9928571 44.552411,40.9907143 C44.5509824,40.8757143 44.5488396,40.7621429 44.5459824,40.675 L44.537411,40.4471429 C44.5202681,39.88 44.5031253,39.2935714 44.6838396,38.89 C45.3581253,37.3978571 47.7338396,36.5414286 49.0902681,36.1628571 C51.5509824,35.4778571 52.6159824,34.0885714 52.2545538,32.0342857 C52.1402681,31.395 51.7459824,30.945 51.4302681,30.5842857 L51.402411,30.5514286 C51.337411,30.4764286 51.2716967,30.4021429 51.2102681,30.325 C50.7645538,29.7628571 50.4252681,29.1314286 50.2295538,28.4971429 C50.2102681,28.44 50.1981253,28.3792857 50.1766967,28.2764286 L50.0059824,27.5142857 L49.3545538,27.4978571 C49.1538396,27.4928571 49.1345538,27.4557143 49.1209824,27.4314286 C48.9316967,27.0771429 48.827411,26.6728571 48.8116967,26.2135714 C48.8509824,26.2064286 48.8895538,26.1992857 48.9266967,26.1921429 L49.7816967,26.0314286 L49.6031253,24.9685714 C49.5838396,24.8585714 49.5659824,24.7542857 49.5531253,24.6528571 C49.4459824,23.8357143 49.5802681,23.19 49.9638396,22.6771429 C50.7695538,21.6007143 52.2559824,20.9585714 53.9402681,20.9585714 C55.6202681,20.9585714 57.1016967,21.6007143 57.9045538,22.6764286 C58.2881253,23.1878571 58.422411,23.8328571 58.3166967,24.6464286 C58.3052681,24.7321429 58.2902681,24.8178571 58.2759824,24.9057143 L58.087411,26.0314286 L58.9381253,26.1921429 C58.9766967,26.1992857 59.0159824,26.2071429 59.057411,26.2142857 C59.0431253,26.6642857 58.9388396,27.0735714 58.747411,27.4321429 C58.7345538,27.4564286 58.7145538,27.4935714 58.5138396,27.4978571 L57.862411,27.5142857 L57.6888396,28.3007143 C57.6752681,28.3678571 57.6616967,28.4342857 57.6388396,28.5035714 C57.4445538,29.1335714 57.1059824,29.7635714 56.6595538,30.3257143 C56.5902681,30.4121429 56.5166967,30.4971429 56.4381253,30.5864286 C56.1052681,30.9671429 55.7288396,31.3985714 55.6152681,32.0357143 C55.2545538,34.0885714 56.3195538,35.4764286 58.7795538,36.1621429 C60.667411,36.6878571 62.507411,37.3821429 63.1859824,38.8878571 C63.3666967,39.2914286 63.3495538,39.8871429 63.332411,40.4628571 L63.3238396,40.675 C63.3209824,40.7642857 63.3188396,40.88 63.322411,40.9842857 Z" id="Shape-Copy-4"></path>
                    </g>
                    <g id="Collaboration" transform="translate(621.000000, 7.000000)">
                        <path d="M40.1165677,9.8430774 C40.1165677,6.84449404 37.6770214,4.40535703 34.6788473,4.40535703 C33.6622674,4.40535703 32.7132139,4.69101436 31.8988041,5.17843251 C28.745933,2.36810468 24.7119442,0.824 20.4696465,0.824 C16.2383986,0.824 12.2072745,2.36442142 9.05685897,5.16451797 C8.24695089,4.68569409 7.30690094,4.40535703 6.2997338,4.40535703 C3.30155969,4.40535703 0.862013432,6.84449404 0.862013432,9.8430774 C0.862013432,11.8713262 1.98008764,13.6405191 3.63100688,14.5752487 C3.40182623,15.7023265 3.27946012,16.8555963 3.27946012,18.0145956 C3.27946012,25.3856185 8.08529668,32.0085303 15.0356094,34.3257105 C15.0352001,34.346173 15.0323354,34.3658171 15.0323354,34.3862796 C15.0323354,37.384863 17.4718816,39.824 20.4700557,39.824 C23.4682299,39.824 25.9077761,37.384863 25.9077761,34.3862796 C25.9077761,34.3658171 25.9049113,34.3457638 25.9045021,34.3253012 C32.8523593,32.0085303 37.6606514,25.379889 37.6606514,18.0145956 C37.6606514,16.8633721 37.5391038,15.7174688 37.3131971,14.5965298 C38.9825327,13.6671204 40.1165677,11.88565 40.1165677,9.8430774 Z M2.49901813,9.8430774 C2.49901813,7.74730213 4.20395853,6.04236174 6.2997338,6.04236174 C8.39550907,6.04236174 10.1004495,7.74730213 10.1004495,9.8430774 C10.1004495,11.9388527 8.39550907,13.6437931 6.2997338,13.6437931 C4.20395853,13.6437931 2.49901813,11.9388527 2.49901813,9.8430774 Z M20.4696465,38.1869953 C18.3738712,38.1869953 16.6689308,36.4820549 16.6689308,34.3862796 C16.6689308,32.2905044 18.3738712,30.585564 20.4696465,30.585564 C22.5654218,30.585564 24.2703622,32.2905044 24.2703622,34.3862796 C24.2703622,36.4820549 22.5654218,38.1869953 20.4696465,38.1869953 Z M36.0232374,18.0141864 C36.0232374,24.5916713 31.7858507,30.5200838 25.6323501,32.6882965 C24.916979,30.5196745 22.8748156,28.94815 20.4696465,28.94815 C18.0644773,28.94815 16.0227232,30.5192653 15.3073522,32.6878873 C9.15180524,30.5196745 4.91605557,24.5965823 4.91605557,18.0141864 C4.91605557,17.0549016 5.00690934,16.0997094 5.18043183,15.1633427 C5.54180062,15.2394634 5.91626545,15.2803885 6.2997338,15.2803885 C9.29790791,15.2803885 11.7374542,12.8412515 11.7374542,9.84266815 C11.7374542,8.44753089 11.2046091,7.1776245 10.3378151,6.21383798 C13.1587835,3.78902476 16.7286815,2.46059545 20.4696465,2.46059545 C24.2241168,2.46059545 27.7997443,3.79475428 30.6235774,6.23266353 C29.7666054,7.19399454 29.2411269,8.45653442 29.2411269,9.84266815 C29.2411269,12.8412515 31.6806732,15.2803885 34.6788473,15.2803885 C35.0492196,15.2803885 35.4109976,15.2427374 35.7609074,15.1715277 C35.9327929,16.1054389 36.0232374,17.0581756 36.0232374,18.0141864 Z M34.6788473,13.6437931 C32.583072,13.6437931 30.8781316,11.9388527 30.8781316,9.8430774 C30.8781316,7.74730213 32.583072,6.04236174 34.6788473,6.04236174 C36.7746226,6.04236174 38.479563,7.74730213 38.479563,9.8430774 C38.479563,11.9388527 36.7746226,13.6437931 34.6788473,13.6437931 Z" id="Shape"></path>
                    </g>
                </g>
            </g>
            <g id="Major-Concepts" transform="translate(44.000000, 39.000000)">
                <text id="actor" font-family="Helvetica-Bold, Helvetica" font-size="15" font-weight="bold" line-spacing="13" letter-spacing="0.299999982" fill="#9B9B9B">
                    <tspan x="47" y="68">actor</tspan>
                </text>
                <text id="activity" font-family="Helvetica-Bold, Helvetica" font-size="15" font-weight="bold" line-spacing="13" letter-spacing="0.299999982" fill="#9B9B9B">
                    <tspan x="235" y="68">activity</tspan>
                </text>
                <text id="resources" font-family="Helvetica-Bold, Helvetica" font-size="15" font-weight="bold" line-spacing="13" letter-spacing="0.299999982" fill="#9B9B9B">
                    <tspan x="416" y="68">resources</tspan>
                </text>
                <text id="tools" font-family="Helvetica-Bold, Helvetica" font-size="15" font-weight="bold" line-spacing="13" letter-spacing="0.299999982" fill="#9B9B9B">
                    <tspan x="627" y="68">tools</tspan>
                </text>
                <text id="An-actor,-also-calle" font-family="Helvetica" font-size="10" font-weight="normal" line-spacing="15" letter-spacing="0.200000003" fill="#4A4A4A">
                    <tspan x="6.62841792" y="93">An actor, also called subject, </tspan>
                    <tspan x="1.63574214" y="108">person, member or interactant, </tspan>
                    <tspan x="27.0864258" y="123">represents an entity </tspan>
                    <tspan x="5.06582027" y="138">responsible for performing an </tspan>
                    <tspan x="3.46455073" y="153">activity. An actor can be either </tspan>
                    <tspan x="25.2333008" y="168">a human being or an </tspan>
                    <tspan x="28.4899414" y="183">autonomous agent.</tspan>
                </text>
                <text id="An-activity-represen-Copy" font-family="Helvetica" font-size="10" font-weight="normal" line-spacing="15" letter-spacing="0.200000003" fill="#4A4A4A">
                    <tspan x="204.632227" y="93">An activity represents a </tspan>
                    <tspan x="198.125977" y="108">cooperative procedure. An </tspan>
                    <tspan x="208.064746" y="123">activity can usually be </tspan>
                    <tspan x="201.116504" y="138">decomposed into smaller </tspan>
                    <tspan x="197.464746" y="153">parts, called sub-activities, </tspan>
                    <tspan x="202.681543" y="168">subtasks or actions, and </tspan>
                    <tspan x="197.37666" y="183">can usually be related with </tspan>
                    <tspan x="223.952832" y="198">other activities.</tspan>
                </text>
                <text id="A-resource,-also-cal" font-family="Helvetica" font-size="10" font-weight="normal" line-spacing="15" letter-spacing="0.200000003" fill="#4A4A4A">
                    <tspan x="400.392383" y="93">A resource, also called </tspan>
                    <tspan x="407.186426" y="108">object, document or </tspan>
                    <tspan x="399.564746" y="123">information, represents </tspan>
                    <tspan x="399.281543" y="138">something that is used,</tspan>
                    <tspan x="388.979102" y="153">produced or transformed by </tspan>
                    <tspan x="392.577832" y="168">an activity. A resource can </tspan>
                    <tspan x="388.393457" y="183">be available in an electronic </tspan>
                    <tspan x="394.269629" y="198">form or in any other form.</tspan>
                </text>
                <text id="An-activity-represen-Copy-3" font-family="Helvetica" font-size="10" font-weight="normal" line-spacing="15" letter-spacing="0.200000003" fill="#4A4A4A">
                    <tspan x="591.632227" y="93">An activity represents a </tspan>
                    <tspan x="585.125977" y="108">cooperative procedure. An </tspan>
                    <tspan x="595.064746" y="123">activity can usually be </tspan>
                    <tspan x="588.116504" y="138">decomposed into smaller </tspan>
                    <tspan x="584.464746" y="153">parts, called sub-activities, </tspan>
                    <tspan x="589.681543" y="168">subtasks or actions, and </tspan>
                    <tspan x="584.37666" y="183">can usually be related with </tspan>
                    <tspan x="610.952832" y="198">other activities.</tspan>
                </text>
                <text id="4-major-concepts" font-family="Helvetica-Bold, Helvetica" font-size="20" font-weight="bold" line-spacing="13" letter-spacing="0.399999976" fill="#000000">
                    <tspan x="271" y="19">4 major concepts</tspan>
                </text>
            </g>
            <text id="The-key-elements-of" font-family="Helvetica" font-size="10" font-weight="normal" line-spacing="15" letter-spacing="0.200000003" fill="#4A4A4A">
                <tspan x="237.118457" y="524">The key elements of a CSCW system are actor, activity, resources and </tspan>
                <tspan x="227.084473" y="539">tools. Every CSCW system is designed using these elements. A groupware </tspan>
                <tspan x="229.445703" y="554">application provides the above mentioned interactions. All five of them are </tspan>
                <tspan x="244.139844" y="569">essential for a good collaborative system. The project defines these </tspan>
                <tspan x="242.267676" y="584">interactions in the scenarios of local as well as remote collaboration. </tspan>
            </text>
            <text id="Further-from-the-pri" font-family="Helvetica" font-size="10" font-weight="normal" line-spacing="15" letter-spacing="0.200000003" fill="#4A4A4A">
                <tspan x="237.355762" y="614">Further from the primary studies a tentative timeline of an architectural </tspan>
                <tspan x="234.3625" y="629">project was prepared to identify the collaborations happening during the </tspan>
                <tspan x="227.495117" y="644">project. A detailed study of Building Information Technology (BIM) was also </tspan>
                <tspan x="237.54082" y="659">done as the product was desingned in a way they it can be used as an </tspan>
                <tspan x="236.232422" y="674">extention of BIM rather than a stand alone product. Based on the study </tspan>
                <tspan x="296.090723" y="689">ideation was done on the possible scenarios.</tspan>
            </text>
        </g>
    </g>
</svg>